<svg xmlns="http://www.w3.org/2000/svg" width="543" height="591" viewBox="0 0 543 591">
<style>text{font-family:'DejaVu Sans Mono',Menlo,Consolas,monospace}.c{opacity:0;animation:in .5s ease-out forwards}.b{transform-box:fill-box;transform-origin:bottom;transform:scaleY(0);animation:up .7s cubic-bezier(.2,.8,.2,1) forwards}@keyframes in{to{opacity:1}}@keyframes up{to{transform:scaleY(1)}}</style>
<rect width="543" height="591" rx="12" fill="#0d1117" stroke="#30363d"/>
<path d="M0 30H543" stroke="#30363d"/>
<circle cx="18" cy="15" r="5" fill="#ff5f56"/><circle cx="34" cy="15" r="5" fill="#ffbd2e"/><circle cx="50" cy="15" r="5" fill="#27c93f"/>
<text x="272" y="19" text-anchor="middle" font-size="11" fill="#8b949e">jedaias@github: ~ $ ./stats.sh</text>
<g class="c" style="animation-delay:0.00s"><rect x="14.0" y="44" width="252.5" height="78" rx="8" fill="#161b22" stroke="#30363d"/><text x="28.0" y="66" font-size="11.5" fill="#8b949e">$ sequência atual</text><text x="28.0" y="94" font-size="26" font-weight="bold" fill="#c77dff">1<tspan font-size="12" font-weight="normal" fill="#8b949e"> dias</tspan></text><text x="28.0" y="112" font-size="10.5" fill="#8b949e">7 out – 7 out</text></g>
<g class="c" style="animation-delay:0.15s"><rect x="276.5" y="44" width="252.5" height="78" rx="8" fill="#161b22" stroke="#30363d"/><text x="290.5" y="66" font-size="11.5" fill="#8b949e">$ maior sequência</text><text x="290.5" y="94" font-size="26" font-weight="bold" fill="#f0f6fc">2<tspan font-size="12" font-weight="normal" fill="#8b949e"> dias</tspan></text><text x="290.5" y="112" font-size="10.5" fill="#8b949e">9 set – 10 set</text></g>
<g class="c" style="animation-delay:0.30s"><rect x="14.0" y="132" width="252.5" height="78" rx="8" fill="#161b22" stroke="#30363d"/><text x="28.0" y="154" font-size="11.5" fill="#8b949e">$ contribuições</text><text x="28.0" y="182" font-size="26" font-weight="bold" fill="#f0f6fc">25<tspan font-size="12" font-weight="normal" fill="#8b949e"> </tspan></text><text x="28.0" y="200" font-size="10.5" fill="#8b949e">no último ano</text></g>
<g class="c" style="animation-delay:0.45s"><rect x="276.5" y="132" width="252.5" height="78" rx="8" fill="#161b22" stroke="#30363d"/><text x="290.5" y="154" font-size="11.5" fill="#8b949e">$ dias ativos</text><text x="290.5" y="182" font-size="26" font-weight="bold" fill="#f0f6fc">7<tspan font-size="12" font-weight="normal" fill="#8b949e"> / 368</tspan></text><text x="290.5" y="200" font-size="10.5" fill="#8b949e">2% do ano</text></g>
<g class="c" style="animation-delay:0.60s"><rect x="14.0" y="220" width="252.5" height="78" rx="8" fill="#161b22" stroke="#30363d"/><text x="28.0" y="242" font-size="11.5" fill="#8b949e">$ melhor dia</text><text x="28.0" y="270" font-size="26" font-weight="bold" fill="#f0f6fc">8<tspan font-size="12" font-weight="normal" fill="#8b949e"> </tspan></text><text x="28.0" y="288" font-size="10.5" fill="#8b949e">7 out</text></g>
<g class="c" style="animation-delay:0.75s"><rect x="276.5" y="220" width="252.5" height="78" rx="8" fill="#161b22" stroke="#30363d"/><text x="290.5" y="242" font-size="11.5" fill="#8b949e">$ média / dia ativo</text><text x="290.5" y="270" font-size="26" font-weight="bold" fill="#f0f6fc">3,6<tspan font-size="12" font-weight="normal" fill="#8b949e"> </tspan></text><text x="290.5" y="288" font-size="10.5" fill="#8b949e">contribuições</text></g>
<g class="c" style="animation-delay:.9s"><rect x="14" y="308" width="515" height="269" rx="8" fill="#161b22" stroke="#30363d"/><text x="28" y="330" font-size="11.5" fill="#8b949e">$ contribuições / mês</text></g>
<rect class="b" style="animation-delay:1.10s" x="35.1" y="547.0" width="23.2" height="2.0" rx="3" fill="#A020F0"/>
<text x="46.7" y="565" text-anchor="middle" font-size="10" fill="#8b949e">O</text>
<rect class="b" style="animation-delay:1.16s" x="72.6" y="547.0" width="23.2" height="2.0" rx="3" fill="#A020F0"/>
<text x="84.2" y="565" text-anchor="middle" font-size="10" fill="#8b949e">N</text>
<rect class="b" style="animation-delay:1.22s" x="110.0" y="547.0" width="23.2" height="2.0" rx="3" fill="#A020F0"/>
<text x="121.7" y="565" text-anchor="middle" font-size="10" fill="#8b949e">D</text>
<rect class="b" style="animation-delay:1.28s" x="147.5" y="547.0" width="23.2" height="2.0" rx="3" fill="#A020F0"/>
<text x="159.1" y="565" text-anchor="middle" font-size="10" fill="#8b949e">J</text>
<rect class="b" style="animation-delay:1.34s" x="185.0" y="547.0" width="23.2" height="2.0" rx="3" fill="#A020F0"/>
<text x="196.6" y="565" text-anchor="middle" font-size="10" fill="#8b949e">F</text>
<rect class="b" style="animation-delay:1.40s" x="222.4" y="547.0" width="23.2" height="2.0" rx="3" fill="#A020F0"/>
<text x="234.0" y="565" text-anchor="middle" font-size="10" fill="#8b949e">M</text>
<rect class="b" style="animation-delay:1.46s" x="259.9" y="547.0" width="23.2" height="2.0" rx="3" fill="#A020F0"/>
<text x="271.5" y="565" text-anchor="middle" font-size="10" fill="#8b949e">A</text>
<rect class="b" style="animation-delay:1.52s" x="297.3" y="522.5" width="23.2" height="26.5" rx="3" fill="#A020F0"/>
<text x="309.0" y="565" text-anchor="middle" font-size="10" fill="#8b949e">M</text>
<rect class="b" style="animation-delay:1.58s" x="334.8" y="547.0" width="23.2" height="2.0" rx="3" fill="#A020F0"/>
<text x="346.4" y="565" text-anchor="middle" font-size="10" fill="#8b949e">J</text>
<rect class="b" style="animation-delay:1.64s" x="372.3" y="547.0" width="23.2" height="2.0" rx="3" fill="#A020F0"/>
<text x="383.9" y="565" text-anchor="middle" font-size="10" fill="#8b949e">J</text>
<rect class="b" style="animation-delay:1.70s" x="409.7" y="547.0" width="23.2" height="2.0" rx="3" fill="#A020F0"/>
<text x="421.3" y="565" text-anchor="middle" font-size="10" fill="#8b949e">A</text>
<rect class="b" style="animation-delay:1.76s" x="447.2" y="350.0" width="23.2" height="199.0" rx="3" fill="#c77dff"/>
<text class="c" style="animation-delay:1.9s" x="458.8" y="344.0" text-anchor="middle" font-size="10" fill="#f0f6fc">15</text>
<text x="458.8" y="565" text-anchor="middle" font-size="10" fill="#8b949e">S</text>
<rect class="b" style="animation-delay:1.82s" x="484.7" y="442.9" width="23.2" height="106.1" rx="3" fill="#A020F0"/>
<text x="496.3" y="565" text-anchor="middle" font-size="10" fill="#8b949e">O</text>
</svg>
